<?xml version="1.0" encoding="UTF-8"?><svg id="Ebene_3" xmlns="http://www.w3.org/2000/svg" viewBox="0 0 934 938"><defs><style>.cls-1{fill:#e30613;}.cls-2{fill:none;stroke:#fff;stroke-miterlimit:10;stroke-width:16.85px;}</style></defs><path class="cls-1" d="M468.17,930c255.72,0,463-207.3,463-463S723.88,4,468.17,4,5.16,211.28,5.16,467s207.28,463,463,463"/><path class="cls-2" d="M170.61,396.72v-13.65c5.09-15.15,16.66-22.66,30.52-27.78,20.48-7.55,41.9-9.95,63.22-13.15,23.5-3.51,46.94-7.44,70.42-11.16,10.61-1.69,18.31-7.53,23.33-17.16,7.38-14.17,14.73-28.35,22.02-42.56,11.76-22.92,23.07-46.06,35.32-68.67,5.55-10.23,12.96-19.4,22.88-25.86,11.26-7.34,22.78-7.57,33.7,.16,5.52,3.92,10.51,8.99,14.8,14.32,13.15,16.33,21.63,35.52,30.67,54.35,11.24,23.38,22.76,46.63,34.3,69.86,4.25,8.54,11.07,14.03,20.22,16.28,5.36,1.32,10.73,2.82,16.16,3.68,29.14,4.64,58.34,8.84,87.41,13.76,16.2,2.72,32.22,6.62,46.39,15.72,15.56,9.97,20.56,25.03,12.93,42.04-4.02,8.99-9.2,17.9-15.63,25.22-13.43,15.32-27.99,29.62-42.16,44.27-14.7,15.18-29.56,30.21-44.2,45.44-6.55,6.81-9.75,15.15-8.79,24.76,1.07,10.73,2.18,21.46,3.8,32.1,4.23,27.82,9.18,55.52,13,83.39,1.91,14.05,2.22,28.37-1.51,42.31-4.44,16.57-16.11,25.5-32.7,24.38-7.08-.48-14.58-1.32-20.99-4.14-19.08-8.42-37.86-17.6-56.48-27.06-20.98-10.63-41.61-21.94-62.46-32.79-8.53-4.44-17.4-4.54-26.2-.72-6.6,2.87-13.31,5.6-19.69,8.96-26.1,13.67-52.01,27.73-78.16,41.26-12.36,6.38-25.41,10.97-39.27,12.91-17.86,2.53-31.48-5.74-36.62-23.33-1.67-5.71-2.58-11.83-2.82-17.81-.98-23.83,4.11-46.97,7.99-70.27,3.83-22.89,7.22-45.85,10.73-68.81,1.72-11.12-1.74-20.55-9.39-28.42-20.58-21.2-41.26-42.31-61.81-63.55-16.63-17.19-33.01-34.63-40.94-58.27Z"/></svg>