<?xml version="1.0" encoding="UTF-8"?><svg id="Ebene_1" xmlns="http://www.w3.org/2000/svg" viewBox="0 0 934 938"><defs><style>.cls-1{fill:#e30613;}.cls-2{fill:none;stroke:#fff;stroke-miterlimit:10;stroke-width:16.98px;}</style></defs><path class="cls-1" d="M467.5,938c257.65,0,466.5-208.87,466.5-466.5S725.15,5,467.5,5,1,213.85,1,471.5s208.85,466.5,466.5,466.5"/><path class="cls-2" d="M466.88,327.02c8.42-9.03,16.11-18.48,25.03-26.57,23.54-21.34,50.79-35.44,82.81-38.34,34.09-3.1,65.46,5.58,93.49,25.08,36.71,25.55,57.63,61.1,62.76,105.5,2.67,23.3-.38,46.37-6.5,69-11.1,41.18-31.98,77.21-58.09,110.42-38.35,48.76-84.62,89.04-135,124.69-17.57,12.46-36.1,23.54-54.14,35.32-6.65,4.37-12.89,4.16-19.75,.04-63.61-38.22-121.66-83.34-171.31-138.83-26.99-30.18-49.87-63.19-65.38-100.87-12.49-30.39-19.73-61.93-17.27-94.98,4.73-63.71,48.21-115.55,109.92-131.52,44.43-11.5,84.12-.78,120.07,26.49,12.06,9.13,22.64,19.8,31.37,32.22,.71,1.01,1.58,1.89,1.97,2.36Z"/></svg>