<?xml version="1.0" encoding="UTF-8"?><svg id="Ebene_4" xmlns="http://www.w3.org/2000/svg" viewBox="0 0 934 938"><defs><style>.cls-1{fill:#fff;}.cls-2{fill:#e30613;}.cls-3{fill:none;stroke:#fff;stroke-miterlimit:6;stroke-width:5.17px;}.cls-4{fill:#1d1d1b;font-family:HelveticaNeue-Bold, 'HelveticaNeue Bold';font-size:152.02px;}</style></defs><path class="cls-2" d="M466.75,932.28c256.35,0,464.14-207.81,464.14-464.14S723.1,4,466.75,4,2.61,211.8,2.61,468.14s207.81,464.14,464.14,464.14"/><text class="cls-4" transform="translate(702.53 678.74)"><tspan x="0" y="0"> </tspan></text><polygon class="cls-1" points="15.59 391.77 15.59 405.53 197.58 405.53 257.42 364.49 258.8 348.86 197.6 391.77 15.59 391.77"/><path class="cls-1" d="M212.61,273.35s-22.8,0-22.8,11.07v12.34s0,11.06,22.8,11.06H732.52s22.8,0,22.8-11.06v-12.34s0-11.07-22.8-11.07H212.61Z"/><polygon class="cls-1" points="651.71 308.8 658.07 308.8 327.3 681.09 316.54 681.57 651.71 308.8"/><polygon class="cls-1" points="302.87 308.8 294.08 307.82 632.17 681.09 641.93 681.09 302.87 308.8"/><rect class="cls-1" x="259.88" y="686.47" width="426.27" height="17.98"/><line class="cls-3" x1="108.42" y1="484.35" x2="289.2" y2="484.35"/><polygon class="cls-1" points="328.76 484.28 284.8 473.93 284.8 494.62 328.76 484.28"/><line class="cls-3" x1="691.27" y1="571.62" x2="689.5" y2="420.74"/><polygon class="cls-1" points="690.39 382.08 680.05 426.05 700.73 426.05 690.39 382.08"/><polygon class="cls-1" points="690.39 610.74 700.73 566.77 680.05 566.77 690.39 610.74"/></svg>