<?xml version="1.0" encoding="UTF-8"?><svg id="Ebene_2" xmlns="http://www.w3.org/2000/svg" viewBox="0 0 934 938"><defs><style>.cls-1{fill:#e30613;}.cls-2{fill:none;stroke:#fff;stroke-miterlimit:10;stroke-width:13.01px;}</style></defs><path class="cls-1" d="M467,934c257.93,0,467-209.09,467-467S724.93,0,467,0,0,209.07,0,467s209.07,467,467,467"/><path class="cls-2" d="M489.46,711.64c.19,18.73,.24,37.28,.62,55.84,.16,7.63-.83,14.34-8.27,18.64-7.46,4.32-13.2,.75-19.15-3.29-63.42-43.11-126.93-86.14-190.31-129.32-12.31-8.39-12.59-18.73-.4-27.44,63.26-45.16,126.63-90.19,190.15-135.01,12.05-8.5,24.87-1.6,25.23,13.26,.5,20.55,.49,41.12,.71,62.64,22.94-.23,41.9-7.96,58.74-20.69,35.41-26.78,48.66-73.5,33.16-114.92-6.76-18.09-6.28-19.74,9.3-30.8,27.17-19.3,54.33-38.6,81.56-57.82,13.77-9.71,21.47-8.05,29.57,6.07,60.97,106.24,27.83,247.43-74.03,316.73-39.16,26.64-82.18,41.6-129.65,44.19-1.39,.08-2.79,.22-4.14,.48-.64,.1-1.21,.54-3.09,1.42Zm-32.95-497.42c0-18.73,.14-37.3-.07-55.86-.07-7.63,1.01-14.33,8.48-18.55,7.49-4.25,13.2-.62,19.09,3.48,62.99,43.75,126.06,87.4,188.99,131.23,12.23,8.5,12.38,18.85,.1,27.44-63.73,44.53-127.55,88.91-191.52,133.1-12.14,8.38-24.89,1.34-25.09-13.53-.29-20.55-.07-41.12-.07-62.64-22.94,0-41.98,7.54-58.95,20.1-35.69,26.43-49.42,73.01-34.35,114.59,6.59,18.14,6.09,19.79-9.61,30.71-27.37,19.01-54.71,38.05-82.15,56.99-13.86,9.56-21.54,7.82-29.5-6.38-59.88-106.83-25.28-247.68,77.29-315.97,39.42-26.24,82.6-40.77,130.1-42.88,1.39-.05,2.77-.19,4.14-.43,.64-.1,1.21-.52,3.1-1.39Z"/></svg>