<?xml version="1.0" encoding="UTF-8"?><svg id="Ebene_1" xmlns="http://www.w3.org/2000/svg" xmlns:xlink="http://www.w3.org/1999/xlink" viewBox="0 0 1709.94 1058"><defs><style>.cls-1{clip-path:url(#clippath);}.cls-2{fill:none;}.cls-3{fill:#e30b17;fill-rule:evenodd;}</style><clipPath id="clippath"><rect class="cls-2" width="1709.94" height="1058"/></clipPath></defs><g class="cls-1"><path class="cls-3" d="M837.99,91.37c-227.51,0-411.94,184.43-411.94,411.94,0,77.81,21.58,150.62,59.09,212.69l-74.33,221.02,228.05-73c59.06,32.62,126.9,51.23,199.13,51.23,227.51,0,411.94-184.47,411.94-411.94S1065.51,91.37,837.99,91.37m0,754.85c-69.67,0-134.54-20.89-188.66-56.69l-131.79,42.17,42.82-127.36c-41.03-56.54-65.28-125.98-65.28-201.04,0-189.12,153.83-342.95,342.91-342.95s342.91,153.83,342.91,342.95-153.83,342.91-342.91,342.91m193.14-249.33c-10.31-5.65-61.04-33.04-70.55-36.9s-16.46-5.88-23.87,4.39c-7.41,10.24-28.46,33.16-34.84,39.96-6.38,6.8-12.57,7.45-22.88,1.76-10.31-5.61-43.78-18.03-82.63-55.35-30.18-29.03-50-64.25-55.73-74.99-5.77-10.77-.08-16.24,5.39-21.28,4.93-4.55,11-11.92,16.5-17.84,5.46-5.92,7.37-10.24,11.15-17.15,3.74-6.88,2.25-13.07-.19-18.45-2.44-5.35-21.54-57.87-29.49-79.26-7.98-21.36-16.88-18.19-23-18.41-6.15-.23-13.1-1.38-20.13-1.64-7.03-.27-18.53,1.95-28.53,12.11-10.05,10.16-38.16,34.57-40.07,86.33-1.95,51.72,33.85,103.14,38.85,110.32,5,7.22,68.34,119.37,173.65,165.52,105.35,46.11,105.89,32.05,125.22,31.02,19.33-1.03,63.14-23.15,72.85-47.33,9.7-24.22,10.47-45.26,7.98-49.77-2.44-4.47-9.36-7.37-19.67-13.03"/></g></svg>